<svg width="126" height="24" viewBox="0 0 126 24" fill="none" xmlns="http://www.w3.org/2000/svg">
<path d="M19.6875 1.6875H4.3125C3.61631 1.6875 2.94863 1.96406 2.45634 2.45634C1.96406 2.94863 1.6875 3.61631 1.6875 4.3125V19.6875C1.6875 20.3837 1.96406 21.0514 2.45634 21.5437C2.94863 22.0359 3.61631 22.3125 4.3125 22.3125H11.8439V13.7308H10.1276V10.2982H11.8297V8.74688C11.8297 7.34288 12.4985 5.14941 15.4418 5.14941L18.0933 5.16005V8.10103H16.1678C15.8547 8.10103 15.4092 8.25694 15.4092 8.92566V10.2984H18.1371L17.824 13.731H15.2766V22.3125H19.6875C20.0322 22.3125 20.3736 22.2446 20.692 22.1127C21.0105 21.9808 21.2999 21.7874 21.5437 21.5437C21.7874 21.2999 21.9808 21.0105 22.1127 20.692C22.2446 20.3736 22.3125 20.0322 22.3125 19.6875V4.3125C22.3125 3.96778 22.2446 3.62644 22.1127 3.30796C21.9808 2.98948 21.7874 2.7001 21.5437 2.45634C21.2999 2.21259 21.0105 2.01923 20.692 1.88732C20.3736 1.7554 20.0322 1.6875 19.6875 1.6875Z" fill="#14142B"/>
<g clip-path="url(#clip0_129_4845)">
<path d="M49.0314 6.00955H42.9686C42.5801 6.00937 42.1954 6.08574 41.8363 6.2343C41.4773 6.38286 41.1511 6.6007 40.8763 6.87536C40.6015 7.15003 40.3835 7.47615 40.2348 7.83509C40.0861 8.19402 40.0095 8.57875 40.0095 8.96728V15.03C40.0094 15.4186 40.0858 15.8035 40.2344 16.1626C40.3831 16.5217 40.601 16.848 40.8758 17.1228C41.1507 17.3976 41.4769 17.6156 41.836 17.7642C42.1951 17.9129 42.58 17.9893 42.9686 17.9891H49.0314C49.42 17.9893 49.8049 17.9129 50.164 17.7642C50.5231 17.6156 50.8493 17.3976 51.1242 17.1228C51.399 16.848 51.6169 16.5217 51.7656 16.1626C51.9142 15.8035 51.9906 15.4186 51.9905 15.03V8.96728C51.9905 8.57875 51.9139 8.19402 51.7652 7.83509C51.6165 7.47615 51.3985 7.15003 51.1237 6.87536C50.8489 6.6007 50.5227 6.38286 50.1637 6.2343C49.8047 6.08574 49.4199 6.00937 49.0314 6.00955ZM46 15.8795C45.2327 15.8795 44.4826 15.652 43.8446 15.2257C43.2067 14.7994 42.7094 14.1935 42.4158 13.4846C42.1221 12.7757 42.0453 11.9957 42.195 11.2431C42.3447 10.4906 42.7142 9.79931 43.2568 9.25675C43.7993 8.71419 44.4906 8.3447 45.2431 8.195C45.9957 8.04531 46.7757 8.12214 47.4846 8.41577C48.1935 8.7094 48.7994 9.20665 49.2257 9.84464C49.652 10.4826 49.8795 11.2327 49.8795 12C49.8781 13.0285 49.4689 14.0144 48.7417 14.7417C48.0144 15.4689 47.0285 15.8781 46 15.8795ZM49.9014 9.07773C49.7126 9.07773 49.528 9.02175 49.3711 8.91686C49.2141 8.81197 49.0917 8.66289 49.0195 8.48847C48.9472 8.31405 48.9283 8.12213 48.9652 7.93696C49.002 7.7518 49.0929 7.58171 49.2264 7.44822C49.3599 7.31472 49.53 7.22381 49.7151 7.18698C49.9003 7.15015 50.0922 7.16905 50.2667 7.2413C50.4411 7.31355 50.5902 7.43589 50.695 7.59287C50.7999 7.74984 50.8559 7.93439 50.8559 8.12318C50.8559 8.37635 50.7553 8.61914 50.5763 8.79815C50.3973 8.97716 50.1545 9.07773 49.9014 9.07773ZM46 9.62864C45.531 9.62864 45.0725 9.76772 44.6825 10.0283C44.2926 10.2889 43.9886 10.6592 43.8092 11.0925C43.6297 11.5258 43.5827 12.0026 43.6742 12.4626C43.7657 12.9226 43.9916 13.3452 44.3232 13.6768C44.6548 14.0085 45.0774 14.2343 45.5374 14.3258C45.9974 14.4173 46.4742 14.3703 46.9075 14.1909C47.3408 14.0114 47.7112 13.7074 47.9717 13.3175C48.2323 12.9275 48.3714 12.469 48.3714 12C48.3714 11.3711 48.1215 10.7679 47.6768 10.3232C47.2321 9.87848 46.6289 9.62864 46 9.62864ZM49.0314 6.00955H42.9686C42.5801 6.00937 42.1954 6.08574 41.8363 6.2343C41.4773 6.38286 41.1511 6.6007 40.8763 6.87536C40.6015 7.15003 40.3835 7.47615 40.2348 7.83509C40.0861 8.19402 40.0095 8.57875 40.0095 8.96728V15.03C40.0094 15.4186 40.0858 15.8035 40.2344 16.1626C40.3831 16.5217 40.601 16.848 40.8758 17.1228C41.1507 17.3976 41.4769 17.6156 41.836 17.7642C42.1951 17.9129 42.58 17.9893 42.9686 17.9891H49.0314C49.42 17.9893 49.8049 17.9129 50.164 17.7642C50.5231 17.6156 50.8493 17.3976 51.1242 17.1228C51.399 16.848 51.6169 16.5217 51.7656 16.1626C51.9142 15.8035 51.9906 15.4186 51.9905 15.03V8.96728C51.9905 8.57875 51.9139 8.19402 51.7652 7.83509C51.6165 7.47615 51.3985 7.15003 51.1237 6.87536C50.8489 6.6007 50.5227 6.38286 50.1637 6.2343C49.8047 6.08574 49.4199 6.00937 49.0314 6.00955ZM46 15.8795C45.2327 15.8795 44.4826 15.652 43.8446 15.2257C43.2067 14.7994 42.7094 14.1935 42.4158 13.4846C42.1221 12.7757 42.0453 11.9957 42.195 11.2431C42.3447 10.4906 42.7142 9.79931 43.2568 9.25675C43.7993 8.71419 44.4906 8.3447 45.2431 8.195C45.9957 8.04531 46.7757 8.12214 47.4846 8.41577C48.1935 8.7094 48.7994 9.20665 49.2257 9.84464C49.652 10.4826 49.8795 11.2327 49.8795 12C49.8781 13.0285 49.4689 14.0144 48.7417 14.7417C48.0144 15.4689 47.0285 15.8781 46 15.8795ZM49.9014 9.07773C49.7126 9.07773 49.528 9.02175 49.3711 8.91686C49.2141 8.81197 49.0917 8.66289 49.0195 8.48847C48.9472 8.31405 48.9283 8.12213 48.9652 7.93696C49.002 7.7518 49.0929 7.58171 49.2264 7.44822C49.3599 7.31472 49.53 7.22381 49.7151 7.18698C49.9003 7.15015 50.0922 7.16905 50.2667 7.2413C50.4411 7.31355 50.5902 7.43589 50.695 7.59287C50.7999 7.74984 50.8559 7.93439 50.8559 8.12318C50.8559 8.37635 50.7553 8.61914 50.5763 8.79815C50.3973 8.97716 50.1545 9.07773 49.9014 9.07773ZM46 9.62864C45.531 9.62864 45.0725 9.76772 44.6825 10.0283C44.2926 10.2889 43.9886 10.6592 43.8092 11.0925C43.6297 11.5258 43.5827 12.0026 43.6742 12.4626C43.7657 12.9226 43.9916 13.3452 44.3232 13.6768C44.6548 14.0085 45.0774 14.2343 45.5374 14.3258C45.9974 14.4173 46.4742 14.3703 46.9075 14.1909C47.3408 14.0114 47.7112 13.7074 47.9717 13.3175C48.2323 12.9275 48.3714 12.469 48.3714 12C48.3714 11.3711 48.1215 10.7679 47.6768 10.3232C47.2321 9.87848 46.6289 9.62864 46 9.62864ZM57.5909 4.29137C57.4847 3.29789 57.0413 2.37078 56.3347 1.6644C55.6281 0.958021 54.7008 0.514998 53.7073 0.409094C48.5854 -0.137341 43.42 -0.137341 38.2982 0.409094C37.3037 0.513826 36.3752 0.956332 35.6674 1.66282C34.9597 2.3693 34.5156 3.29706 34.4091 4.29137C33.8627 9.4132 33.8627 14.5786 34.4091 19.7005C34.5136 20.6954 34.9562 21.6244 35.6629 22.3324C36.3697 23.0405 37.298 23.4847 38.2927 23.5909C43.4144 24.14 48.5801 24.14 53.7018 23.5909C54.6967 23.4861 55.6256 23.0432 56.3334 22.3361C57.0411 21.6291 57.485 20.7007 57.5909 19.7059C58.1377 14.5823 58.1377 9.415 57.5909 4.29137ZM53.5 15.03C53.4993 16.2151 53.0283 17.3514 52.1905 18.1895C51.3526 19.0276 50.2164 19.4989 49.0314 19.5H42.9686C41.7837 19.4986 40.6477 19.0271 39.8099 18.1891C38.9722 17.3511 38.5011 16.215 38.5 15.03V8.96728C38.5014 7.78269 38.9728 6.64705 39.8105 5.80955C40.6483 4.97205 41.7841 4.50109 42.9686 4.5H49.0314C50.216 4.50109 51.3517 4.97205 52.1895 5.80955C53.0273 6.64705 53.4986 7.78269 53.5 8.96728V15.03ZM49.0314 6.00955H42.9686C42.5801 6.00937 42.1954 6.08574 41.8363 6.2343C41.4773 6.38286 41.1511 6.6007 40.8763 6.87536C40.6015 7.15003 40.3835 7.47615 40.2348 7.83509C40.0861 8.19402 40.0095 8.57875 40.0095 8.96728V15.03C40.0094 15.4186 40.0858 15.8035 40.2344 16.1626C40.3831 16.5217 40.601 16.848 40.8758 17.1228C41.1507 17.3976 41.4769 17.6156 41.836 17.7642C42.1951 17.9129 42.58 17.9893 42.9686 17.9891H49.0314C49.42 17.9893 49.8049 17.9129 50.164 17.7642C50.5231 17.6156 50.8493 17.3976 51.1242 17.1228C51.399 16.848 51.6169 16.5217 51.7656 16.1626C51.9142 15.8035 51.9906 15.4186 51.9905 15.03V8.96728C51.9905 8.57875 51.9139 8.19402 51.7652 7.83509C51.6165 7.47615 51.3985 7.15003 51.1237 6.87536C50.8489 6.6007 50.5227 6.38286 50.1637 6.2343C49.8047 6.08574 49.4199 6.00937 49.0314 6.00955ZM46 15.8795C45.2327 15.8795 44.4826 15.652 43.8446 15.2257C43.2067 14.7994 42.7094 14.1935 42.4158 13.4846C42.1221 12.7757 42.0453 11.9957 42.195 11.2431C42.3447 10.4906 42.7142 9.79931 43.2568 9.25675C43.7993 8.71419 44.4906 8.3447 45.2431 8.195C45.9957 8.04531 46.7757 8.12214 47.4846 8.41577C48.1935 8.7094 48.7994 9.20665 49.2257 9.84464C49.652 10.4826 49.8795 11.2327 49.8795 12C49.8781 13.0285 49.4689 14.0144 48.7417 14.7417C48.0144 15.4689 47.0285 15.8781 46 15.8795ZM49.9014 9.07773C49.7126 9.07773 49.528 9.02175 49.3711 8.91686C49.2141 8.81197 49.0917 8.66289 49.0195 8.48847C48.9472 8.31405 48.9283 8.12213 48.9652 7.93696C49.002 7.7518 49.0929 7.58171 49.2264 7.44822C49.3599 7.31472 49.53 7.22381 49.7151 7.18698C49.9003 7.15015 50.0922 7.16905 50.2667 7.2413C50.4411 7.31355 50.5902 7.43589 50.695 7.59287C50.7999 7.74984 50.8559 7.93439 50.8559 8.12318C50.8559 8.37635 50.7553 8.61914 50.5763 8.79815C50.3973 8.97716 50.1545 9.07773 49.9014 9.07773ZM46 9.62864C45.531 9.62864 45.0725 9.76772 44.6825 10.0283C44.2926 10.2889 43.9886 10.6592 43.8092 11.0925C43.6297 11.5258 43.5827 12.0026 43.6742 12.4626C43.7657 12.9226 43.9916 13.3452 44.3232 13.6768C44.6548 14.0085 45.0774 14.2343 45.5374 14.3258C45.9974 14.4173 46.4742 14.3703 46.9075 14.1909C47.3408 14.0114 47.7112 13.7074 47.9717 13.3175C48.2323 12.9275 48.3714 12.469 48.3714 12C48.3714 11.3711 48.1215 10.7679 47.6768 10.3232C47.2321 9.87848 46.6289 9.62864 46 9.62864Z" fill="#14142B"/>
</g>
<g clip-path="url(#clip1_129_4845)">
<path d="M88.7273 0H71.2727C70.4047 0 69.5723 0.344804 68.9586 0.95856C68.3448 1.57232 68 2.40475 68 3.27273V20.7273C68 21.5953 68.3448 22.4277 68.9586 23.0414C69.5723 23.6552 70.4047 24 71.2727 24H88.7273C89.5953 24 90.4277 23.6552 91.0414 23.0414C91.6552 22.4277 92 21.5953 92 20.7273V3.27273C92 2.40475 91.6552 1.57232 91.0414 0.95856C90.4277 0.344804 89.5953 0 88.7273 0ZM76.1818 18.9927C76.182 19.0593 76.169 19.1252 76.1437 19.1867C76.1184 19.2483 76.0811 19.3042 76.0341 19.3513C75.9871 19.3985 75.9313 19.4359 75.8698 19.4614C75.8084 19.4869 75.7425 19.5 75.6759 19.5H73.52C73.4533 19.5002 73.3873 19.4872 73.3257 19.4618C73.264 19.4363 73.208 19.399 73.1609 19.3518C73.1138 19.3047 73.0764 19.2487 73.051 19.1871C73.0255 19.1254 73.0125 19.0594 73.0127 18.9927V9.95455C73.0127 9.82001 73.0662 9.69098 73.1613 9.59585C73.2564 9.50072 73.3855 9.44727 73.52 9.44727H75.6759C75.8102 9.44763 75.9389 9.50124 76.0337 9.59633C76.1286 9.69142 76.1818 9.82024 76.1818 9.95455V18.9927ZM74.5973 8.59091C74.1927 8.59091 73.7973 8.47095 73.4609 8.24619C73.1245 8.02143 72.8623 7.70197 72.7075 7.32822C72.5527 6.95446 72.5122 6.54319 72.5911 6.14641C72.67 5.74963 72.8649 5.38516 73.1509 5.0991C73.437 4.81304 73.8014 4.61823 74.1982 4.5393C74.595 4.46038 75.0063 4.50089 75.38 4.6557C75.7538 4.81052 76.0732 5.07269 76.298 5.40906C76.5228 5.74543 76.6427 6.1409 76.6427 6.54545C76.6427 7.08794 76.4272 7.60821 76.0436 7.99181C75.66 8.37541 75.1398 8.59091 74.5973 8.59091ZM87.4509 19.0282C87.4511 19.0895 87.4391 19.1502 87.4158 19.2069C87.3924 19.2635 87.3581 19.315 87.3147 19.3584C87.2714 19.4017 87.2199 19.436 87.1632 19.4594C87.1066 19.4828 87.0458 19.4947 86.9845 19.4945H84.6664C84.6051 19.4947 84.5443 19.4828 84.4877 19.4594C84.431 19.436 84.3795 19.4017 84.3362 19.3584C84.2929 19.315 84.2585 19.2635 84.2351 19.2069C84.2118 19.1502 84.1998 19.0895 84.2 19.0282V14.7941C84.2 14.1614 84.3855 12.0232 82.5459 12.0232C81.1209 12.0232 80.8305 13.4864 80.7732 14.1436V19.0336C80.7732 19.1562 80.725 19.2738 80.639 19.361C80.553 19.4483 80.4361 19.4982 80.3136 19.5H78.0745C78.0134 19.5 77.9528 19.4879 77.8963 19.4645C77.8398 19.441 77.7885 19.4066 77.7453 19.3633C77.7021 19.32 77.6678 19.2686 77.6445 19.212C77.6213 19.1554 77.6094 19.0948 77.6095 19.0336V9.915C77.6094 9.85382 77.6213 9.79321 77.6445 9.73663C77.6678 9.68006 77.7021 9.62864 77.7453 9.58531C77.7885 9.54199 77.8398 9.50762 77.8963 9.48416C77.9528 9.46071 78.0134 9.44864 78.0745 9.44864H80.3136C80.4373 9.44864 80.5559 9.49777 80.6434 9.58523C80.7309 9.67269 80.78 9.79131 80.78 9.915V10.7032C81.3091 9.90818 82.0932 9.29727 83.7664 9.29727C87.4727 9.29727 87.4482 12.7582 87.4482 14.6591L87.4509 19.0282Z" fill="#14142B"/>
</g>
<g clip-path="url(#clip2_129_4845)">
<path d="M114.803 11.5902L120.203 19.3154H117.987L113.58 13.0116V13.0112L112.933 12.0859L107.784 4.72156H110.001L114.156 10.6648L114.803 11.5902Z" fill="#14142B"/>
<path d="M123.407 0H104.593C103.161 0 102 1.16108 102 2.59325V21.4067C102 22.8389 103.161 24 104.593 24H123.407C124.839 24 126 22.8389 126 21.4067V2.59325C126 1.16108 124.839 0 123.407 0ZM117.308 20.3525L112.848 13.8617L107.264 20.3525H105.821L112.207 12.9295L105.821 3.63521H110.692L114.915 9.78152L120.203 3.63521H121.646L115.556 10.7139H115.556L122.179 20.3525H117.308Z" fill="#14142B"/>
</g>
<defs>
<clipPath id="clip0_129_4845">
<rect width="24" height="24" fill="white" transform="translate(34)"/>
</clipPath>
<clipPath id="clip1_129_4845">
<rect width="24" height="24" fill="white" transform="translate(68)"/>
</clipPath>
<clipPath id="clip2_129_4845">
<rect width="24" height="24" fill="white" transform="translate(102)"/>
</clipPath>
</defs>
</svg>
